<?xml version="1.0" encoding="utf-8"?>
<!-- Generator: Adobe Illustrator 23.0.3, SVG Export Plug-In . SVG Version: 6.00 Build 0)  -->
<svg version="1.1" id="Layer_1" xmlns="http://www.w3.org/2000/svg" xmlns:xlink="http://www.w3.org/1999/xlink" x="0px" y="0px"
	 viewBox="0 0 128 128" style="enable-background:new 0 0 128 128;" xml:space="preserve">
<g>
	<g>
		<g>
			<path d="M108.7,49.9c0-0.1,0-0.2-0.1-0.3c0-0.1,0-0.2-0.1-0.3c0-0.1-0.1-0.2-0.1-0.2c-0.1-0.1-0.1-0.2-0.2-0.2c0,0,0,0-0.1-0.1
				L93.8,37.6V26.1c0-2.5-2-4.5-4.5-4.5H73.2l-6.5-5c-1.6-1.2-3.8-1.2-5.4,0l-6.5,5H38.7c-2.5,0-4.5,2-4.5,4.5v11.5L19.9,48.8
				c0,0,0,0-0.1,0.1c-0.1,0.1-0.1,0.1-0.2,0.2c-0.1,0.1-0.1,0.1-0.1,0.2c0,0.1-0.1,0.2-0.1,0.3c0,0.1-0.1,0.2-0.1,0.3
				c0,0,0,0.1,0,0.1v50.6c0,0.9,0.3,1.9,0.9,2.6c0,0,0,0,0,0c0,0,0,0,0,0c0.8,1.1,2.1,1.8,3.5,1.8h80.4c1.4,0,2.7-0.7,3.5-1.8
				c0,0,0,0,0,0c0,0,0,0,0,0c0.6-0.8,0.9-1.7,0.9-2.6L108.7,49.9C108.7,49.9,108.7,49.9,108.7,49.9z M63.1,19c0.5-0.4,1.3-0.4,1.8,0
				l3.4,2.7h-8.6L63.1,19z M24.2,102.1l38.9-30.3c0.5-0.4,1.3-0.4,1.8,0l39,30.3H24.2z M105.7,99.8l-39-30.3c-1.6-1.2-3.8-1.2-5.4,0
				l-39,30.3V52.2l24.4,19c0.7,0.5,1.6,0.4,2.1-0.3c0.5-0.7,0.4-1.6-0.3-2.1L23.7,49.6l10.5-8.1v11.5c0,0.8,0.7,1.5,1.5,1.5
				c0.8,0,1.5-0.7,1.5-1.5V26.1c0-0.8,0.7-1.5,1.5-1.5h50.6c0.8,0,1.5,0.7,1.5,1.5v26.8c0,0.8,0.7,1.5,1.5,1.5s1.5-0.7,1.5-1.5V41.4
				l10.5,8.1L79.4,68.8c-0.4,0.3-0.6,0.9-0.6,1.4s0.4,1,0.9,1.2c0.5,0.2,1.1,0.1,1.5-0.2l24.5-19L105.7,99.8L105.7,99.8z"/>
			<path d="M81.9,51.4v-6c0-9.9-8-17.9-17.9-17.9s-17.9,8-17.9,17.9s8,17.9,17.9,17.9c0.8,0,1.5-0.7,1.5-1.5c0-0.8-0.7-1.5-1.5-1.5
				c-8.2,0-14.9-6.7-14.9-14.9S55.8,30.6,64,30.6s14.9,6.7,14.9,14.9v6c0,1.6-1.3,3-3,3s-3-1.3-3-3v-6c0-0.8-0.7-1.5-1.5-1.5
				S70,44.7,70,45.5c0,3.3-2.7,6-6,6c-3.3,0-6-2.7-6-6s2.7-6,6-6c0.8,0,1.5-0.7,1.5-1.5s-0.7-1.5-1.5-1.5c-4,0-7.5,2.6-8.6,6.5
				c-1.1,3.8,0.5,8,3.9,10.1c3.4,2.1,7.8,1.7,10.7-1c0.3,3.1,3.1,5.5,6.2,5.3C79.4,57.2,81.9,54.6,81.9,51.4z"/>
		</g>
	</g>
</g>
</svg>
